<?xml version="1.0" encoding="utf-8"?><svg xmlns="http://www.w3.org/2000/svg" xmlns:xlink="http://www.w3.org/1999/xlink"><symbol viewBox="0 0 24 24" id="close" xmlns="http://www.w3.org/2000/svg"><path d="M19 6.41L17.59 5 12 10.59 6.41 5 5 6.41 10.59 12 5 17.59 6.41 19 12 13.41 17.59 19 19 17.59 13.41 12 19 6.41z"/></symbol><symbol viewBox="0 0 24 24" id="comment-plus" xmlns="http://www.w3.org/2000/svg"><path d="M9 22a1 1 0 01-1-1v-3H4a2 2 0 01-2-2V4a2 2 0 012-2h16a2 2 0 012 2v12a2 2 0 01-2 2h-6.1l-3.7 3.71c-.2.19-.45.29-.7.29H9m2-16v3H8v2h3v3h2v-3h3V9h-3V6h-2z"/></symbol><symbol viewBox="0 0 24 24" id="email" xmlns="http://www.w3.org/2000/svg"><path d="M20 8l-8 5-8-5V6l8 5 8-5m0-2H4c-1.11 0-2 .89-2 2v12a2 2 0 002 2h16a2 2 0 002-2V6a2 2 0 00-2-2z"/></symbol><symbol viewBox="0 0 24 24" id="eye" xmlns="http://www.w3.org/2000/svg"><path d="M12 9a3 3 0 00-3 3 3 3 0 003 3 3 3 0 003-3 3 3 0 00-3-3m0 8a5 5 0 01-5-5 5 5 0 015-5 5 5 0 015 5 5 5 0 01-5 5m0-12.5C7 4.5 2.73 7.61 1 12c1.73 4.39 6 7.5 11 7.5s9.27-3.11 11-7.5c-1.73-4.39-6-7.5-11-7.5z"/></symbol><symbol viewBox="0 0 24 24" id="eye-off" xmlns="http://www.w3.org/2000/svg"><path d="M11.83 9L15 12.16V12a3 3 0 00-3-3h-.17m-4.3.8l1.55 1.55c-.05.21-.08.42-.08.65a3 3 0 003 3c.22 0 .44-.03.65-.08l1.55 1.55c-.67.33-1.41.53-2.2.53a5 5 0 01-5-5c0-.79.2-1.53.53-2.2M2 4.27l2.28 2.28.45.45C3.08 8.3 1.78 10 1 12c1.73 4.39 6 7.5 11 7.5 1.55 0 3.03-.3 4.38-.84l.43.42L19.73 22 21 20.73 3.27 3M12 7a5 5 0 015 5c0 .64-.13 1.26-.36 1.82l2.93 2.93c1.5-1.25 2.7-2.89 3.43-4.75-1.73-4.39-6-7.5-11-7.5-1.4 0-2.74.25-4 .7l2.17 2.15C10.74 7.13 11.35 7 12 7z"/></symbol><symbol viewBox="0 0 24 24" id="key" xmlns="http://www.w3.org/2000/svg"><path d="M7 14a2 2 0 01-2-2 2 2 0 012-2 2 2 0 012 2 2 2 0 01-2 2m5.65-4A5.99 5.99 0 007 6a6 6 0 00-6 6 6 6 0 006 6 5.99 5.99 0 005.65-4H17v4h4v-4h2v-4H12.65z"/></symbol><symbol viewBox="0 0 24 24" id="paperclip" xmlns="http://www.w3.org/2000/svg"><path d="M16.5 6v11.5a4 4 0 01-4 4 4 4 0 01-4-4V5A2.5 2.5 0 0111 2.5 2.5 2.5 0 0113.5 5v10.5a1 1 0 01-1 1 1 1 0 01-1-1V6H10v9.5a2.5 2.5 0 002.5 2.5 2.5 2.5 0 002.5-2.5V5a4 4 0 00-4-4 4 4 0 00-4 4v12.5a5.5 5.5 0 005.5 5.5 5.5 5.5 0 005.5-5.5V6h-1.5z"/></symbol><symbol viewBox="0 0 24 24" id="send" xmlns="http://www.w3.org/2000/svg"><path d="M2 21l21-9L2 3v7l15 2-15 2v7z"/></symbol></svg>